<?xml version="1.0" encoding="UTF-8"?>
<svg width="410" height="404" viewBox="0 0 410 404" fill="none" xmlns="http://www.w3.org/2000/svg">
  <defs>
    <linearGradient id="paint0_linear" x1="210" y1="0" x2="210" y2="404" gradientUnits="userSpaceOnUse">
      <stop stop-color="#41D1FF"/>
      <stop offset="1" stop-color="#BD34FE"/>
    </linearGradient>
    <linearGradient id="paint1_linear" x1="210" y1="0" x2="210" y2="404" gradientUnits="userSpaceOnUse">
      <stop stop-color="#FFEA83"/>
      <stop offset="0.0833333" stop-color="#FFDD35"/>
      <stop offset="1" stop-color="#FFA800"/>
    </linearGradient>
  </defs>
  <path d="M399.641 59.5246L215.643 388.545C212.383 394.617 203.773 394.595 200.544 388.504L10.404 59.5597C6.8409 53.0205 12.3499 45.1392 19.6597 46.2419L205.223 74.6459C206.295 74.8091 207.385 74.8075 208.457 74.641L390.276 46.302C397.546 45.1903 403.092 52.9815 399.58 59.5232L399.641 59.5246Z" fill="url(#paint0_linear)"/>
  <path d="M292.965 1.5744L156.222 28.2553C154.67 28.5651 153.226 29.2646 152.047 30.2864C150.869 31.3083 149.999 32.6083 149.524 34.0556L93.0396 209.952C92.2139 212.558 92.362 215.366 93.4602 217.871C94.5584 220.375 96.5414 222.414 99.0459 223.593L204.771 275.304C207.34 276.515 210.304 276.641 212.973 275.661C215.641 274.681 217.807 272.689 218.989 270.165L332.936 32.015C334.098 29.4589 334.163 26.4466 333.123 23.7789C332.083 21.1112 330.006 19.9317 327.419 19.5084L292.965 1.5744Z" fill="url(#paint1_linear)"/>
</svg>

